<svg xmlns="http://www.w3.org/2000/svg" style="display: none;">
    <symbol id="icon-new" viewBox="0 0 20 20">
        <path fill="#f24995"
            d="M10 0c.423 0 .766.343.766.766v8.467h8.468a.766.766 0 1 1 0 1.533h-8.468v8.468a.766.766 0 1 1-1.532 0l-.001-8.468H.766a.766.766 0 0 1 0-1.532l8.467-.001V.766A.768.768 0 0 1 10 0Z" />
    </symbol>

    <symbol id="icon-upload" viewBox="0 0 2048 2048">
        <path fill="#f24995"
            d="M1536 0v128H384V0h1152zm45 979l-90 90l-467-470v1449H896V599l-467 470l-90-90l621-626l621 626z" />
    </symbol>

    <symbol id="icon-sync" viewBox="0 0 2048 2048">
        <path fill="#f24995"
            d="M2048 256v512h-512V640h316q-59-117-146-211t-196-161t-231-103t-255-37q-154 0-295 47T471 309T268 517T136 787L14 749q50-166 149-304t232-237T689 55t335-55q137 0 267 34t245 98t214 157t170 210V256h128zM196 1408q59 117 146 211t196 161t231 103t255 37h128v118q-32 4-64 7t-64 3q-136 0-266-34t-246-100t-214-157t-170-208v243H0v-512h511v128H196zm956-256h896v640h-384v128h127v128h-383v-128h128v-128h-384v-640zm128 512h640v-384h-640v384z" />
    </symbol>

    <symbol id="icon-excel" viewBox="0 0 32 32">
        <path fill="#20744a" fill-rule="evenodd"
            d="M28.781 4.405h-10.13V2.018L2 4.588v22.527l16.651 2.868v-3.538h10.13A1.162 1.162 0 0 0 30 25.349V5.5a1.162 1.162 0 0 0-1.219-1.095Zm.16 21.126H18.617l-.017-1.889h2.487v-2.2h-2.506l-.012-1.3h2.518v-2.2H18.55l-.012-1.3h2.549v-2.2H18.53v-1.3h2.557v-2.2H18.53v-1.3h2.557v-2.2H18.53v-2h10.411Z" />
        <path fill="#20744a"
            d="M22.487 7.439h4.323v2.2h-4.323zm0 3.501h4.323v2.2h-4.323zm0 3.501h4.323v2.2h-4.323zm0 3.501h4.323v2.2h-4.323zm0 3.501h4.323v2.2h-4.323z" />
        <path fill="#fff" fill-rule="evenodd"
            d="m6.347 10.673l2.146-.123l1.349 3.709l1.594-3.862l2.146-.123l-2.606 5.266l2.606 5.279l-2.269-.153l-1.532-4.024l-1.533 3.871l-2.085-.184l2.422-4.663l-2.238-4.993z" />
    </symbol>
    <symbol id="icon-xlsx" viewBox="0 0 32 32">
        <path
            fill="#20744a"
            fill-rule="evenodd"
            d="M28.781 4.405h-10.13V2.018L2 4.588v22.527l16.651 2.868v-3.538h10.13A1.162 1.162 0 0 0 30 25.349V5.5a1.162 1.162 0 0 0-1.219-1.095Zm.16 21.126H18.617l-.017-1.889h2.487v-2.2h-2.506l-.012-1.3h2.518v-2.2H18.55l-.012-1.3h2.549v-2.2H18.53v-1.3h2.557v-2.2H18.53v-1.3h2.557v-2.2H18.53v-2h10.411Z"
        />
        <path
            fill="#20744a"
            d="M22.487 7.439h4.323v2.2h-4.323zm0 3.501h4.323v2.2h-4.323zm0 3.501h4.323v2.2h-4.323zm0 3.501h4.323v2.2h-4.323zm0 3.501h4.323v2.2h-4.323z"
        />
        <path
            fill="#fff"
            fill-rule="evenodd"
            d="m6.347 10.673l2.146-.123l1.349 3.709l1.594-3.862l2.146-.123l-2.606 5.266l2.606 5.279l-2.269-.153l-1.532-4.024l-1.533 3.871l-2.085-.184l2.422-4.663l-2.238-4.993z"
        />
    </symbol>
    <symbol id="icon-xls" viewBox="0 0 32 32">
        <path
            fill="#20744a"
            fill-rule="evenodd"
            d="M28.781 4.405h-10.13V2.018L2 4.588v22.527l16.651 2.868v-3.538h10.13A1.162 1.162 0 0 0 30 25.349V5.5a1.162 1.162 0 0 0-1.219-1.095Zm.16 21.126H18.617l-.017-1.889h2.487v-2.2h-2.506l-.012-1.3h2.518v-2.2H18.55l-.012-1.3h2.549v-2.2H18.53v-1.3h2.557v-2.2H18.53v-1.3h2.557v-2.2H18.53v-2h10.411Z"
        />
        <path
            fill="#20744a"
            d="M22.487 7.439h4.323v2.2h-4.323zm0 3.501h4.323v2.2h-4.323zm0 3.501h4.323v2.2h-4.323zm0 3.501h4.323v2.2h-4.323zm0 3.501h4.323v2.2h-4.323z"
        />
        <path
            fill="#fff"
            fill-rule="evenodd"
            d="m6.347 10.673l2.146-.123l1.349 3.709l1.594-3.862l2.146-.123l-2.606 5.266l2.606 5.279l-2.269-.153l-1.532-4.024l-1.533 3.871l-2.085-.184l2.422-4.663l-2.238-4.993z"
        />
    </symbol>
    <symbol id="icon-flow" viewBox="0 0 2048 2048">
        <path fill="#f24995"
            d="M1408 256h640v640h-640V640h-120l-449 896H640v256H0v-640h640v256h120l449-896h199V256zM512 1664v-384H128v384h384zm1408-896V384h-384v384h384z" />
    </symbol>

    <symbol id="icon-more" viewBox="0 0 24 24">
        <path fill="currentColor"
            d="M16 12a2 2 0 0 1 2-2a2 2 0 0 1 2 2a2 2 0 0 1-2 2a2 2 0 0 1-2-2m-6 0a2 2 0 0 1 2-2a2 2 0 0 1 2 2a2 2 0 0 1-2 2a2 2 0 0 1-2-2m-6 0a2 2 0 0 1 2-2a2 2 0 0 1 2 2a2 2 0 0 1-2 2a2 2 0 0 1-2-2m2-1a1 1 0 0 0-1 1a1 1 0 0 0 1 1a1 1 0 0 0 1-1a1 1 0 0 0-1-1m6 0a1 1 0 0 0-1 1a1 1 0 0 0 1 1a1 1 0 0 0 1-1a1 1 0 0 0-1-1m6 0a1 1 0 0 0-1 1a1 1 0 0 0 1 1a1 1 0 0 0 1-1a1 1 0 0 0-1-1Z" />
    </symbol>

    <symbol id="icon-sparkle" viewBox="0 0 12 12">
        <path d="M12 6l0 -3" />
        <path d="M6 12l-3 0" />
        <path d="M7.75 7.75l-2.15 -2.15" />
    </symbol>
    <symbol id="icon-folder" viewBox="0 0 500 600">
        <path
            d="M304 112L192 112C183.2 112 176 119.2 176 128L176 512C176 520.8 183.2 528 192 528L448 528C456.8 528 464 520.8 464 512L464 272L376 272C336.2 272 304 239.8 304 200L304 112zM444.1 224L352 131.9L352 200C352 213.3 362.7 224 376 224L444.1 224zM128 128C128 92.7 156.7 64 192 64L325.5 64C342.5 64 358.8 70.7 370.8 82.7L493.3 205.3C505.3 217.3 512 233.6 512 250.6L512 512C512 547.3 483.3 576 448 576L192 576C156.7 576 128 547.3 128 512L128 128z" />
    </symbol>
    <symbol id="icon-docx" viewBox="0 0 421 511.605">
        <path fill="#E44B4D"
            d="M95.705.014h199.094L421 136.548v317.555c0 31.54-25.961 57.502-57.502 57.502H95.705c-31.55 0-57.502-25.873-57.502-57.502V57.515C38.203 25.886 64.076.014 95.705.014z" />
        <path fill="#CD4445"
            d="M341.028 133.408h-.019L421 188.771v-52.066h-54.357c-9.458-.15-17.998-1.274-25.615-3.297z" />
        <path fill="#FBCFD0"
            d="M294.8 0L421 136.533v.172h-54.357c-45.068-.718-69.33-23.397-71.843-61.384V0z" />
        <path fill="#CD4445" fill-rule="nonzero"
            d="M0 431.901V253.404l.028-1.261c.668-16.446 14.333-29.706 30.936-29.706h7.238v50.589h354.304c12.862 0 23.373 10.51 23.373 23.371v135.504c0 12.83-10.543 23.373-23.373 23.373H23.373C10.541 455.274 0 444.75 0 431.901z" />
        <path fill="#963232" fill-rule="nonzero"
            d="M143.448 240.364a8.496 8.496 0 01-8.496-8.497 8.496 8.496 0 018.496-8.497h163.176a8.496 8.496 0 018.496 8.497 8.496 8.496 0 01-8.496 8.497H143.448zm0-59.176a8.496 8.496 0 010-16.993h172.304a8.496 8.496 0 110 16.993H143.448z" />
        <path fill="#fff" fill-rule="nonzero"
            d="M11.329 276.171v154.728c0 7.793 6.38 14.178 14.179 14.178h365.996c7.799 0 14.178-6.379 14.178-14.178V297.405c0-7.798-6.392-14.178-14.178-14.178H37.892c-12.618-.096-19.586-1.638-26.563-7.056z" />
        <path fill="#1A1A1A" fill-rule="nonzero"
            d="M53.76 401.572v-81.894h36.689c14.762 0 24.895 3.145 30.399 9.435 5.502 6.289 8.255 16.794 8.255 31.512 0 14.72-2.753 25.223-8.255 31.513-5.504 6.29-15.637 9.434-30.399 9.434H53.76zm37.083-60.929H79.965v39.965h10.878c3.581 0 6.178-.416 7.794-1.244 1.617-.831 2.425-2.732 2.425-5.701v-26.075c0-2.969-.808-4.87-2.425-5.699-1.616-.83-4.213-1.246-7.794-1.246zm45.465 20.049c0-14.939 2.797-25.835 8.386-32.692 5.592-6.857 15.681-10.287 30.269-10.287 14.587 0 24.677 3.43 30.266 10.287 5.592 6.857 8.388 17.753 8.388 32.692 0 7.424-.591 13.671-1.77 18.736-1.178 5.067-3.21 9.477-6.093 13.234-2.882 3.758-6.857 6.508-11.922 8.255-5.068 1.747-11.357 2.621-18.869 2.621-7.512 0-13.802-.874-18.869-2.621-5.065-1.747-9.041-4.497-11.925-8.255-2.881-3.757-4.913-8.167-6.092-13.234-1.177-5.065-1.769-11.312-1.769-18.736zm28.171-13.629v34.069h10.878c3.579 0 6.178-.415 7.794-1.246 1.617-.828 2.426-2.729 2.426-5.699v-34.068h-11.008c-3.494 0-6.048.415-7.664 1.245-1.616.829-2.426 2.73-2.426 5.699zm114.653 31.055l1.965 22.014c-5.504 2.271-12.404 3.406-20.704 3.406-8.297 0-14.957-.874-19.982-2.621-5.022-1.747-8.974-4.497-11.858-8.255-2.881-3.757-4.892-8.167-6.026-13.234-1.137-5.065-1.704-11.312-1.704-18.736 0-7.427.567-13.693 1.704-18.803 1.134-5.11 3.145-9.543 6.026-13.301 5.592-7.248 15.855-10.875 30.793-10.875 3.319 0 7.228.328 11.728.983 4.497.655 7.839 1.464 10.023 2.425l-3.93 20.047c-5.68-1.223-10.876-1.835-15.594-1.835-4.716 0-7.992.437-9.826 1.31-1.835.874-2.754 2.62-2.754 5.241v34.33c3.409.7 6.86 1.048 10.353 1.048 7.425 0 14.021-1.048 19.786-3.144zm36.295-58.44l9.04 21.884h1.311l9.04-21.884h28.434l-18.214 39.571 18.214 42.323h-29.089l-9.826-23.585h-1.18l-9.696 23.585h-27.778l17.819-41.535-17.819-40.359h29.744z" />
    </symbol>

    <symbol id="icon-doc" viewBox="0 0 421 511.605">
        <path fill="#E44B4D"
            d="M95.705.014h199.094L421 136.548v317.555c0 31.54-25.961 57.502-57.502 57.502H95.705c-31.55 0-57.502-25.873-57.502-57.502V57.515C38.203 25.886 64.076.014 95.705.014z" />
        <path fill="#CD4445"
            d="M341.028 133.408h-.019L421 188.771v-52.066h-54.357c-9.458-.15-17.998-1.274-25.615-3.297z" />
        <path fill="#FBCFD0"
            d="M294.8 0L421 136.533v.172h-54.357c-45.068-.718-69.33-23.397-71.843-61.384V0z" />
        <path fill="#CD4445" fill-rule="nonzero"
            d="M0 431.901V253.404l.028-1.261c.668-16.446 14.333-29.706 30.936-29.706h7.238v50.589h354.304c12.862 0 23.373 10.51 23.373 23.371v135.504c0 12.83-10.543 23.373-23.373 23.373H23.373C10.541 455.274 0 444.75 0 431.901z" />
        <path fill="#963232" fill-rule="nonzero"
            d="M143.448 240.364a8.496 8.496 0 01-8.496-8.497 8.496 8.496 0 018.496-8.497h163.176a8.496 8.496 0 018.496 8.497 8.496 8.496 0 01-8.496 8.497H143.448zm0-59.176a8.496 8.496 0 010-16.993h172.304a8.496 8.496 0 110 16.993H143.448z" />
        <path fill="#fff" fill-rule="nonzero"
            d="M11.329 276.171v154.728c0 7.793 6.38 14.178 14.179 14.178h365.996c7.799 0 14.178-6.379 14.178-14.178V297.405c0-7.798-6.392-14.178-14.178-14.178H37.892c-12.618-.096-19.586-1.638-26.563-7.056z" />
        <path fill="#1A1A1A" fill-rule="nonzero"
            d="M53.76 401.572v-81.894h36.689c14.762 0 24.895 3.145 30.399 9.435 5.502 6.289 8.255 16.794 8.255 31.512 0 14.72-2.753 25.223-8.255 31.513-5.504 6.29-15.637 9.434-30.399 9.434H53.76zm37.083-60.929H79.965v39.965h10.878c3.581 0 6.178-.416 7.794-1.244 1.617-.831 2.425-2.732 2.425-5.701v-26.075c0-2.969-.808-4.87-2.425-5.699-1.616-.83-4.213-1.246-7.794-1.246zm45.465 20.049c0-14.939 2.797-25.835 8.386-32.692 5.592-6.857 15.681-10.287 30.269-10.287 14.587 0 24.677 3.43 30.266 10.287 5.592 6.857 8.388 17.753 8.388 32.692 0 7.424-.591 13.671-1.77 18.736-1.178 5.067-3.21 9.477-6.093 13.234-2.882 3.758-6.857 6.508-11.922 8.255-5.068 1.747-11.357 2.621-18.869 2.621-7.512 0-13.802-.874-18.869-2.621-5.065-1.747-9.041-4.497-11.925-8.255-2.881-3.757-4.913-8.167-6.092-13.234-1.177-5.065-1.769-11.312-1.769-18.736zm28.171-13.629v34.069h10.878c3.579 0 6.178-.415 7.794-1.246 1.617-.828 2.426-2.729 2.426-5.699v-34.068h-11.008c-3.494 0-6.048.415-7.664 1.245-1.616.829-2.426 2.73-2.426 5.699zm114.653 31.055l1.965 22.014c-5.504 2.271-12.404 3.406-20.704 3.406-8.297 0-14.957-.874-19.982-2.621-5.022-1.747-8.974-4.497-11.858-8.255-2.881-3.757-4.892-8.167-6.026-13.234-1.137-5.065-1.704-11.312-1.704-18.736 0-7.427.567-13.693 1.704-18.803 1.134-5.11 3.145-9.543 6.026-13.301 5.592-7.248 15.855-10.875 30.793-10.875 3.319 0 7.228.328 11.728.983 4.497.655 7.839 1.464 10.023 2.425l-3.93 20.047c-5.68-1.223-10.876-1.835-15.594-1.835-4.716 0-7.992.437-9.826 1.31-1.835.874-2.754 2.62-2.754 5.241v34.33c3.409.7 6.86 1.048 10.353 1.048 7.425 0 14.021-1.048 19.786-3.144zm36.295-58.44l9.04 21.884h1.311l9.04-21.884h28.434l-18.214 39.571 18.214 42.323h-29.089l-9.826-23.585h-1.18l-9.696 23.585h-27.778l17.819-41.535-17.819-40.359h29.744z" />
    </symbol>
    <symbol id="icon-pdf" viewBox="0 0 421 511.605">
        <path fill="#0078d4"
            d="M95.705.014h199.094L421 136.548v317.555c0 31.54-25.961 57.502-57.502 57.502H95.705c-31.55 0-57.502-25.873-57.502-57.502V57.515C38.203 25.886 64.076.014 95.705.014z" />
        <path fill="#CD4445"
            d="M341.028 133.408h-.019L421 188.771v-52.066h-54.357c-9.458-.15-17.998-1.274-25.615-3.297z" />
        <path fill="#FBCFD0"
            d="M294.8 0L421 136.533v.172h-54.357c-45.068-.718-69.33-23.397-71.843-61.384V0z" />
        <path fill="#CD4445" fill-rule="nonzero"
            d="M0 431.901V253.404l.028-1.261c.668-16.446 14.333-29.706 30.936-29.706h7.238v50.589h342.975c12.862 0 23.373 10.51 23.373 23.371v135.504c0 12.83-10.543 23.373-23.373 23.373H23.373C10.541 455.274 0 444.75 0 431.901z" />
        <path fill="#963232" fill-rule="nonzero"
            d="M143.448 240.364a8.496 8.496 0 01-8.496-8.497 8.496 8.496 0 018.496-8.497h163.176a8.496 8.496 0 018.496 8.497 8.496 8.496 0 01-8.496 8.497H143.448zm0-59.176a8.496 8.496 0 010-16.993h172.304a8.496 8.496 0 110 16.993H143.448z" />
        <path fill="#fff" fill-rule="nonzero"
            d="M11.329 276.171v154.728c0 7.793 6.38 14.178 14.179 14.178h354.667c7.799 0 14.178-6.379 14.178-14.178V297.405c0-7.798-6.388-14.178-14.178-14.178H37.892c-12.618-.096-19.586-1.638-26.563-7.056z" />
        <path fill="#1A1A1A" fill-rule="nonzero"
            d="M136.343 381.787h-17.035v19.785H93.103v-81.894h41.274c18.782 0 28.171 10.09 28.171 30.269 0 11.094-2.445 19.306-7.336 24.634-1.835 2.008-4.367 3.712-7.6 5.11-3.233 1.396-6.988 2.096-11.269 2.096zm-17.035-41.144v20.179h6.029c3.145 0 5.438-.327 6.878-.982 1.443-.656 2.162-2.162 2.162-4.522v-9.171c0-2.359-.719-3.866-2.162-4.521-1.44-.655-3.733-.983-6.878-.983h-6.029zm53.069 60.929v-81.894h36.689c14.762 0 24.895 3.145 30.399 9.435 5.502 6.289 8.255 16.794 8.255 31.512 0 14.72-2.753 25.223-8.255 31.513-5.504 6.29-15.637 9.434-30.399 9.434h-36.689zm37.083-60.929h-10.878v39.965h10.878c3.581 0 6.178-.416 7.794-1.244 1.616-.831 2.426-2.732 2.426-5.701v-26.075c0-2.969-.81-4.87-2.426-5.699-1.616-.83-4.213-1.246-7.794-1.246zm97.879 30.53h-22.277v30.399h-26.206v-81.894h53.724l-3.276 20.965h-24.242v11.008h22.277v19.522z" />
    </symbol>
    <symbol id="icon-delete" viewBox="0 0 452 511.78">
        <path fill="#023144" fill-rule="nonzero"
            d="M324.41 511.78H127.59c-41.45 0-73.26-33.73-74.93-74.43L40.49 142.91H14.44C6.47 142.91 0 136.44 0 128.47V97.93c0-23.75 19.53-43.28 43.28-43.28h106.51v-6.89C149.79 21.49 171.3 0 197.56 0h56.88c26.29 0 47.77 21.48 47.77 47.76v6.89h106.51c23.75 0 43.28 19.53 43.28 43.28v30.54c0 7.97-6.47 14.44-14.44 14.44H411.5l-12.16 294.45c-1.68 40.69-33.48 74.42-74.93 74.42zM166.77 54.65h118.45v-6.89c0-16.91-13.87-30.77-30.78-30.77h-56.88c-16.93 0-30.79 13.84-30.79 30.77v6.89z" />
        <path fill="#EDD8DB"
            d="M127.59 497.34h196.82c33.3 0 59.17-27.28 60.55-60.55l12.14-293.88H54.9l12.14 293.88c1.37 33.27 27.25 60.55 60.55 60.55z" />
        <path fill="#fff"
            d="M55.74 163.38l11.3 273.41c.45 10.77 3.46 20.91 8.46 29.71h250.24c19.23 0 34.25-15.74 34.95-34.95l8.49-233.22c.7-19.21-15.72-34.95-34.94-34.95H55.74z" />
        <path fill="#E4989D"
            d="M43.28 69.09h365.44c15.86 0 28.84 12.98 28.84 28.84v30.54H14.44V97.93c0-15.86 12.98-28.84 28.84-28.84z" />
        <path fill="#023144" fill-rule="nonzero"
            d="M131.95 199.45c-.02-3.96 3.19-7.2 7.16-7.21 3.97-.02 7.2 3.19 7.22 7.15l1.36 226.97c.01 3.97-3.19 7.2-7.16 7.22-3.97.01-7.2-3.19-7.22-7.16l-1.36-226.97zm172.36 0c-.02-3.96 3.19-7.2 7.15-7.21 3.97-.02 7.21 3.19 7.22 7.15l1.37 226.97c.02 3.97-3.19 7.2-7.16 7.22-3.97.01-7.2-3.19-7.22-7.16l-1.36-226.97zm-84.34-.03c0-3.98 3.24-7.21 7.22-7.21 3.99 0 7.22 3.23 7.22 7.21v226.97c0 3.98-3.23 7.22-7.22 7.22-3.98 0-7.22-3.24-7.22-7.22V199.42z" />
    </symbol>
    <symbol id="icon-download" viewBox="0 0 512 433.6">
        <path fill="#1A1A1A" fill-rule="nonzero"
            d="M359.785 124.707a172.966 172.966 0 00-9.415 5.044c-9.373 5.498-18.625 12.21-28.081 19.915l-20.169-23.081a166.847 166.847 0 0122.501-17.54 154.74 154.74 0 0119.918-11.042 148.086 148.086 0 018.33-3.876c-13.29-23.542-32.416-40.415-54.082-50.832-43.064-20.618-96.686-16.131-134.618 13.331-21.792 16.873-38.336 42.127-44.71 75.583l-2.002 10.456-10.415 1.835c-10.209 1.791-19.331 4.252-27.332 7.376-7.75 2.999-14.666 6.708-20.707 11.083-4.835 3.5-9.002 7.418-12.543 11.668-10.958 13.123-16.043 29.579-15.918 46.248.124 16.914 5.628 33.996 15.792 48.037 3.792 5.21 8.169 10.004 13.166 14.171a66.257 66.257 0 0017.211 10.333c6.374 2.623 13.415 4.496 21.207 5.581h11.335a148.445 148.445 0 00.763 30.668H97.417l-1.918-.167c-11.121-1.419-21.207-4.042-30.372-7.834-9.462-3.917-17.832-8.961-25.208-15.126-7-5.831-13.128-12.46-18.333-19.668C7.671 267.707.171 244.289.003 220.959c-.166-23.586 7.167-47.041 23.001-66.041 5.123-6.166 11.163-11.835 18.078-16.833 8.043-5.835 17.254-10.749 27.67-14.791 7.166-2.795 14.834-5.127 22.913-6.999 9.169-36.417 28.712-64.461 53.837-83.917C192.57-4.098 258.606-9.919 312.039 15.751c29.204 14.045 54.703 37.418 71.248 70.293 6.666-1.044 13.332-1.586 19.955-1.503 69.259.514 109.454 59.525 108.748 124.041-.292 26.293-7.374 52.46-21.874 71.706-9.457 12.544-21.583 22.792-36.124 30.918-13.999 7.834-30.331 13.79-48.664 18.042l-3.341.407a148.641 148.641 0 001.219-19.008c0-4.132-.179-8.221-.512-12.267 13.688-3.476 25.846-8.068 36.256-13.883 10.958-6.124 19.919-13.583 26.626-22.542 10.415-13.874 15.542-33.496 15.751-53.624.561-47.211-26.496-92.875-78.292-93.204-14.292-.126-29.167 3.332-43.25 9.58z" />
        <path fill="#3B95F6"
            d="M255.999 187.698c67.902 0 122.952 55.049 122.952 122.95 0 67.902-55.05 122.952-122.952 122.952-67.901 0-122.95-55.05-122.95-122.952 0-67.901 55.049-122.95 122.95-122.95z" />
        <path fill="#fff" fill-rule="nonzero"
            d="M206.424 299.319c-3.8.162-6.501 1.423-8.057 3.793-4.23 6.339 1.542 12.603 5.548 17.017 11.364 12.471 39.216 42.448 44.824 49.045 4.25 4.7 10.302 4.7 14.552 0 5.793-6.768 35.047-38.109 45.85-50.241 3.748-4.22 8.383-9.977 4.479-15.821-1.594-2.37-4.266-3.631-8.065-3.793h-23.069v-39.633c0-6.09-4.996-11.087-11.088-11.087H240.59c-6.095 0-11.088 4.99-11.088 11.087v39.633h-23.078z" />
    </symbol>
    <symbol id="icon-edit" viewBox="0 0 117.74 122.88">
        <path class="st0"
            d="M94.62,2c-1.46-1.36-3.14-2.09-5.02-1.99c-1.88,0-3.56,0.73-4.92,2.2L73.59,13.72l31.07,30.03l11.19-11.72 c1.36-1.36,1.88-3.14,1.88-5.02s-0.73-3.66-2.09-4.92L94.62,2L94.62,2L94.62,2z M41.44,109.58c-4.08,1.36-8.26,2.62-12.35,3.98 c-4.08,1.36-8.16,2.72-12.35,4.08c-9.73,3.14-15.07,4.92-16.22,5.23c-1.15,0.31-0.42-4.18,1.99-13.6l7.74-29.61l0.64-0.66 l30.56,30.56L41.44,109.58L41.44,109.58L41.44,109.58z M22.2,67.25l42.99-44.82l31.07,29.92L52.75,97.8L22.2,67.25L22.2,67.25z" />
    </symbol>
    <symbol id="icon-txt" viewBox="0 0 16 16">
        <path fill="none" stroke="#000000" stroke-linejoin="round"
            d="M15 7.5h-1.5m0 0H12m1.5 0V12M7 7.5H5.5m0 0H4m1.5 0V12M8 7c0 .5.75 1.5 1.5 2.5m0 0c.75 1 1.5 2 1.5 2.5M9.5 9.5c-.75 1-1.5 2-1.5 2.5m1.5-2.5c.75-1 1.5-2 1.5-2.5m.5 6.5v1h-9v-13h6m0 0v3h3m-3-3H9L11.5 4v.5m0 0V6" />
    </symbol>
    <symbol id="icon-csv" viewBox="0 0 16 16">
        <path fill="none" stroke="#000000" stroke-linejoin="round"
            d="M7 7.5H5a.5.5 0 0 0-.5.5v3a.5.5 0 0 0 .5.5h2m3.5-4h-2A.5.5 0 0 0 8 8v1a.5.5 0 0 0 .5.5h1a.5.5 0 0 1 .5.5v1a.5.5 0 0 1-.5.5h-2m4-4.5c0 .5 1 4.5 1 4.5h1s1-4 1-4.5M11 13.5v1H2v-13h6m0 0v3h3m-3-3h.5L11 4v.5m0 0V6" />
    </symbol>
    <symbol id="icon-png" width="200" height="200" viewBox="0 0 16 16">
        <path fill="none" stroke="#000000" stroke-linejoin="round"
            d="M15 7.5h-3v4h2.5v-2H13m-8.5.5H7V7.5H4.5m0 2.5v2m0-2V7.5m0 0V7m4 .5c0 1.5 2 3 2 4m-2-4V12m0-4.5V7m2 4.5v.5m0-.5V7m1 6.5v1h-9v-13h6m0 0v3h3m-3-3H9L11.5 4v.5m0 0V6" />
    </symbol>
    <symbol id="icon-jpg" width="200" height="200" viewBox="0 0 16 16">
        <path fill="none" stroke="#000000" stroke-linejoin="round"
            d="M15 7.5h-3v4h2.5v-2H13m-9-2h1.5m0 0H7m-1.5 0v4H4M8 10h2.5V7.5H8M8 10v2m0-2V7.5m0 0V7m3.5 6.5v1h-9v-13h6m0 0v3h3m-3-3H9L11.5 4v.5m0 0V6" />
    </symbol>
    <symbol id="icon-jpeg" width="200" height="200" viewBox="0 0 24 24">
        <path fill="none" stroke="#000000" stroke-linejoin="round"
            d="M21.5 10H17v4.5h4.5zm-6-8.5h-12v12H10V8h5.5zm5.334 15.924A2.33 2.33 0 0 0 19.5 17c-1.38 0-2.5 1.231-2.5 2.75s1.12 2.75 2.5 2.75c.563 0 1.082-.205 1.5-.55V20h-1M4 17h1v4a1.5 1.5 0 0 1-3 0m5.5 2v-3m0 0v-3H9a1.5 1.5 0 0 1 0 3zm8.5-3h-3.5v5.5H16m-3.5-3H16" />
    </symbol>
</svg>