<svg xmlns="http://www.w3.org/2000/svg" style="display: none;">
    <symbol id="icon-new" viewBox="0 0 20 20">
        <path fill="currentColor"
            d="M10 0c.423 0 .766.343.766.766v8.467h8.468a.766.766 0 1 1 0 1.533h-8.468v8.468a.766.766 0 1 1-1.532 0l-.001-8.468H.766a.766.766 0 0 1 0-1.532l8.467-.001V.766A.768.768 0 0 1 10 0Z" />
    </symbol>

    <symbol id="icon-upload" viewBox="0 0 2048 2048">
        <path fill="currentColor"
            d="M1536 0v128H384V0h1152zm45 979l-90 90l-467-470v1449H896V599l-467 470l-90-90l621-626l621 626z" />
    </symbol>

    <symbol id="icon-sync" viewBox="0 0 2048 2048">
        <path fill="currentColor"
            d="M2048 256v512h-512V640h316q-59-117-146-211t-196-161t-231-103t-255-37q-154 0-295 47T471 309T268 517T136 787L14 749q50-166 149-304t232-237T689 55t335-55q137 0 267 34t245 98t214 157t170 210V256h128zM196 1408q59 117 146 211t196 161t231 103t255 37h128v118q-32 4-64 7t-64 3q-136 0-266-34t-246-100t-214-157t-170-208v243H0v-512h511v128H196zm956-256h896v640h-384v128h127v128h-383v-128h128v-128h-384v-640zm128 512h640v-384h-640v384z" />
    </symbol>

    <symbol id="icon-excel" viewBox="0 0 32 32">
        <path fill="#20744a" fill-rule="evenodd"
            d="M28.781 4.405h-10.13V2.018L2 4.588v22.527l16.651 2.868v-3.538h10.13A1.162 1.162 0 0 0 30 25.349V5.5a1.162 1.162 0 0 0-1.219-1.095Zm.16 21.126H18.617l-.017-1.889h2.487v-2.2h-2.506l-.012-1.3h2.518v-2.2H18.55l-.012-1.3h2.549v-2.2H18.53v-1.3h2.557v-2.2H18.53v-1.3h2.557v-2.2H18.53v-2h10.411Z" />
        <path fill="#20744a"
            d="M22.487 7.439h4.323v2.2h-4.323zm0 3.501h4.323v2.2h-4.323zm0 3.501h4.323v2.2h-4.323zm0 3.501h4.323v2.2h-4.323zm0 3.501h4.323v2.2h-4.323z" />
        <path fill="#fff" fill-rule="evenodd"
            d="m6.347 10.673l2.146-.123l1.349 3.709l1.594-3.862l2.146-.123l-2.606 5.266l2.606 5.279l-2.269-.153l-1.532-4.024l-1.533 3.871l-2.085-.184l2.422-4.663l-2.238-4.993z" />
    </symbol>
    <symbol id="icon-xlsx" viewBox="0 0 32 32">
        <path
            fill="#20744a"
            fill-rule="evenodd"
            d="M28.781 4.405h-10.13V2.018L2 4.588v22.527l16.651 2.868v-3.538h10.13A1.162 1.162 0 0 0 30 25.349V5.5a1.162 1.162 0 0 0-1.219-1.095Zm.16 21.126H18.617l-.017-1.889h2.487v-2.2h-2.506l-.012-1.3h2.518v-2.2H18.55l-.012-1.3h2.549v-2.2H18.53v-1.3h2.557v-2.2H18.53v-1.3h2.557v-2.2H18.53v-2h10.411Z"
        />
        <path
            fill="#20744a"
            d="M22.487 7.439h4.323v2.2h-4.323zm0 3.501h4.323v2.2h-4.323zm0 3.501h4.323v2.2h-4.323zm0 3.501h4.323v2.2h-4.323zm0 3.501h4.323v2.2h-4.323z"
        />
        <path
            fill="#fff"
            fill-rule="evenodd"
            d="m6.347 10.673l2.146-.123l1.349 3.709l1.594-3.862l2.146-.123l-2.606 5.266l2.606 5.279l-2.269-.153l-1.532-4.024l-1.533 3.871l-2.085-.184l2.422-4.663l-2.238-4.993z"
        />
    </symbol>
    <symbol id="icon-xls" viewBox="0 0 32 32">
        <path
            fill="#20744a"
            fill-rule="evenodd"
            d="M28.781 4.405h-10.13V2.018L2 4.588v22.527l16.651 2.868v-3.538h10.13A1.162 1.162 0 0 0 30 25.349V5.5a1.162 1.162 0 0 0-1.219-1.095Zm.16 21.126H18.617l-.017-1.889h2.487v-2.2h-2.506l-.012-1.3h2.518v-2.2H18.55l-.012-1.3h2.549v-2.2H18.53v-1.3h2.557v-2.2H18.53v-1.3h2.557v-2.2H18.53v-2h10.411Z"
        />
        <path
            fill="#20744a"
            d="M22.487 7.439h4.323v2.2h-4.323zm0 3.501h4.323v2.2h-4.323zm0 3.501h4.323v2.2h-4.323zm0 3.501h4.323v2.2h-4.323zm0 3.501h4.323v2.2h-4.323z"
        />
        <path
            fill="#fff"
            fill-rule="evenodd"
            d="m6.347 10.673l2.146-.123l1.349 3.709l1.594-3.862l2.146-.123l-2.606 5.266l2.606 5.279l-2.269-.153l-1.532-4.024l-1.533 3.871l-2.085-.184l2.422-4.663l-2.238-4.993z"
        />
    </symbol>
    <symbol id="icon-flow" viewBox="0 0 2048 2048">
        <path
            d="M1408 256h640v640h-640V640h-120l-449 896H640v256H0v-640h640v256h120l449-896h199V256zM512 1664v-384H128v384h384zm1408-896V384h-384v384h384z" />
    </symbol>

    <symbol id="icon-more" viewBox="0 0 24 24">
        <path fill="currentColor"
            d="M16 12a2 2 0 0 1 2-2a2 2 0 0 1 2 2a2 2 0 0 1-2 2a2 2 0 0 1-2-2m-6 0a2 2 0 0 1 2-2a2 2 0 0 1 2 2a2 2 0 0 1-2 2a2 2 0 0 1-2-2m-6 0a2 2 0 0 1 2-2a2 2 0 0 1 2 2a2 2 0 0 1-2 2a2 2 0 0 1-2-2m2-1a1 1 0 0 0-1 1a1 1 0 0 0 1 1a1 1 0 0 0 1-1a1 1 0 0 0-1-1m6 0a1 1 0 0 0-1 1a1 1 0 0 0 1 1a1 1 0 0 0 1-1a1 1 0 0 0-1-1m6 0a1 1 0 0 0-1 1a1 1 0 0 0 1 1a1 1 0 0 0 1-1a1 1 0 0 0-1-1Z" />
    </symbol>

    <symbol id="icon-sparkle" viewBox="0 0 12 12">
        <path d="M12 6l0 -3" />
        <path d="M6 12l-3 0" />
        <path d="M7.75 7.75l-2.15 -2.15" />
    </symbol>
    <symbol id="icon-folder" viewBox="0 0 500 600">
        <path
            d="M304 112L192 112C183.2 112 176 119.2 176 128L176 512C176 520.8 183.2 528 192 528L448 528C456.8 528 464 520.8 464 512L464 272L376 272C336.2 272 304 239.8 304 200L304 112zM444.1 224L352 131.9L352 200C352 213.3 362.7 224 376 224L444.1 224zM128 128C128 92.7 156.7 64 192 64L325.5 64C342.5 64 358.8 70.7 370.8 82.7L493.3 205.3C505.3 217.3 512 233.6 512 250.6L512 512C512 547.3 483.3 576 448 576L192 576C156.7 576 128 547.3 128 512L128 128z" />
    </symbol>
    <symbol id="icon-docx" viewBox="0 0 24 24">
        <path stroke-linecap="round" stroke-linejoin="round"
            d="M19.5 14.25v-2.625a3.375 3.375 0 0 0-3.375-3.375h-1.5A1.125 1.125 0 0 1 13.5 7.125v-1.5a3.375 3.375 0 0 0-3.375-3.375H8.25m0 12.75h7.5m-7.5 3H12M10.5 2.25H5.625c-.621 0-1.125.504-1.125 1.125v17.25c0 .621.504 1.125 1.125 1.125h12.75c.621 0 1.125-.504 1.125-1.125V11.25a9 9 0 0 0-9-9Z" />
    </symbol>
    <symbol id="icon-doc" viewBox="0 0 24 24">
        <path stroke-linecap="round" stroke-linejoin="round"
            d="M19.5 14.25v-2.625a3.375 3.375 0 0 0-3.375-3.375h-1.5A1.125 1.125 0 0 1 13.5 7.125v-1.5a3.375 3.375 0 0 0-3.375-3.375H8.25m0 12.75h7.5m-7.5 3H12M10.5 2.25H5.625c-.621 0-1.125.504-1.125 1.125v17.25c0 .621.504 1.125 1.125 1.125h12.75c.621 0 1.125-.504 1.125-1.125V11.25a9 9 0 0 0-9-9Z" />
    </symbol>
    <symbol id="icon-pdf" viewBox="0 0 115.28 122.88"
        style="enable-background:new 0 0 115.28 122.88" xml:space="preserve"><style type="text/css">.st0{fill-rule:evenodd;clip-rule:evenodd;}</style><g><path class="st0" d="M25.38,57h64.88V37.34H69.59c-2.17,0-5.19-1.17-6.62-2.6c-1.43-1.43-2.3-4.01-2.3-6.17V7.64l0,0H8.15 c-0.18,0-0.32,0.09-0.41,0.18C7.59,7.92,7.55,8.05,7.55,8.24v106.45c0,0.14,0.09,0.32,0.18,0.41c0.09,0.14,0.28,0.18,0.41,0.18 c22.78,0,58.09,0,81.51,0c0.18,0,0.17-0.09,0.27-0.18c0.14-0.09,0.33-0.28,0.33-0.41v-11.16H25.38c-4.14,0-7.56-3.4-7.56-7.56 V64.55C17.82,60.4,21.22,57,25.38,57L25.38,57z M29.5,67.4h13.19c2.87,0,5.02,0.68,6.46,2.05c1.43,1.37,2.14,3.31,2.14,5.84 c0,2.59-0.78,4.62-2.34,6.08c-1.56,1.46-3.94,2.19-7.14,2.19h-4.35v9.49H29.5V67.4L29.5,67.4z M37.45,78.37h1.95 c1.54,0,2.62-0.27,3.24-0.8c0.62-0.53,0.93-1.21,0.93-2.04c0-0.81-0.27-1.49-0.81-2.05c-0.54-0.56-1.55-0.84-3.05-0.84h-2.27V78.37 L37.45,78.37z M54.99,67.4h11.78c2.32,0,4.2,0.32,5.63,0.94c1.43,0.63,2.61,1.53,3.55,2.71c0.93,1.18,1.61,2.55,2.02,4.11 c0.42,1.56,0.63,3.22,0.63,4.97c0,2.74-0.31,4.87-0.94,6.38c-0.62,1.51-1.49,2.78-2.6,3.8c-1.11,1.02-2.3,1.7-3.57,2.04 c-1.74,0.47-3.31,0.7-4.72,0.7H54.99V67.4L54.99,67.4z M62.9,73.21v14.01h1.95c1.66,0,2.84-0.19,3.55-0.55 c0.7-0.37,1.25-1.01,1.65-1.92c0.4-0.92,0.6-2.4,0.6-4.45c0-2.72-0.44-4.57-1.33-5.58c-0.89-1-2.36-1.5-4.42-1.5H62.9L62.9,73.21z M82.25,67.4h19.6v5.52H90.21v4.48h9.96v5.2h-9.96v10.46h-7.95V67.4L82.25,67.4z M97.79,57h9.93c4.16,0,7.56,3.41,7.56,7.56v31.42 c0,4.15-3.41,7.56-7.56,7.56h-9.93v13.55c0,1.61-0.65,3.04-1.7,4.1c-1.06,1.06-2.49,1.7-4.1,1.7c-29.44,0-56.59,0-86.18,0 c-1.61,0-3.04-0.64-4.1-1.7c-1.06-1.06-1.7-2.49-1.7-4.1V5.85c0-1.61,0.65-3.04,1.7-4.1c1.06-1.06,2.53-1.7,4.1-1.7h58.72 C64.66,0,64.8,0,64.94,0c0.64,0,1.29,0.28,1.75,0.69h0.09c0.09,0.05,0.14,0.09,0.23,0.18l29.99,30.36c0.51,0.51,0.88,1.2,0.88,1.98 c0,0.23-0.05,0.41-0.09,0.65V57L97.79,57z M67.52,27.97V8.94l21.43,21.7H70.19c-0.74,0-1.38-0.32-1.89-0.78 C67.84,29.4,67.52,28.71,67.52,27.97L67.52,27.97z"/></g>
    </symbol>

</svg>